<svg width="36" height="36" viewBox="0 0 36 36" fill="none" xmlns="http://www.w3.org/2000/svg">
<path d="M29.2122 22.5454C29.0105 23.0024 28.9504 23.5093 29.0394 24.0008C29.1285 24.4923 29.3629 24.9459 29.7122 25.3029L29.803 25.3939C30.0849 25.6753 30.3084 26.0094 30.4609 26.3774C30.6134 26.7453 30.6919 27.1396 30.6919 27.5378C30.6919 27.9361 30.6134 28.3304 30.4609 28.6983C30.3084 29.0661 30.0849 29.4003 29.803 29.6818C29.5217 29.9634 29.1874 30.1869 28.8195 30.3394C28.4517 30.4919 28.0574 30.5704 27.6592 30.5704C27.2609 30.5704 26.8665 30.4919 26.4987 30.3394C26.1309 30.1869 25.7967 29.9634 25.5152 29.6818L25.4242 29.5908C25.0672 29.2416 24.6137 29.0073 24.1222 28.9181C23.6307 28.8289 23.1237 28.8891 22.6667 29.0907C22.2185 29.2829 21.8364 29.6018 21.5672 30.0083C21.298 30.4148 21.1535 30.8911 21.1515 31.3788V31.6363C21.1515 32.4399 20.8324 33.2108 20.264 33.7791C19.6957 34.3473 18.9249 34.6666 18.1212 34.6666C17.3175 34.6666 16.5469 34.3473 15.9785 33.7791C15.4102 33.2108 15.0909 32.4399 15.0909 31.6363V31.4999C15.0792 30.9984 14.9169 30.5121 14.6251 30.1041C14.3332 29.6959 13.9254 29.3853 13.4546 29.2121C12.9976 29.0104 12.4907 28.9503 11.9992 29.0393C11.5076 29.1284 11.0541 29.3628 10.697 29.7121L10.6061 29.8029C10.3247 30.0848 9.99046 30.3083 9.62259 30.4608C9.25471 30.6133 8.86039 30.6918 8.46216 30.6918C8.06394 30.6918 7.66961 30.6133 7.30174 30.4608C6.93386 30.3083 6.59966 30.0848 6.31822 29.8029C6.03647 29.5216 5.81296 29.1872 5.66047 28.8194C5.50797 28.4516 5.42947 28.0573 5.42947 27.6591C5.42947 27.2608 5.50797 26.8664 5.66047 26.4986C5.81296 26.1308 6.03647 25.7966 6.31822 25.5151L6.40912 25.4241C6.75842 25.0671 6.99274 24.6136 7.08187 24.1221C7.17099 23.6306 7.11082 23.1236 6.90912 22.6666C6.71707 22.2184 6.39816 21.8363 5.99166 21.5671C5.58516 21.2979 5.10881 21.1534 4.62126 21.1514H4.36367C3.55999 21.1514 2.78922 20.8323 2.22092 20.2639C1.65264 19.6956 1.33337 18.9248 1.33337 18.1211C1.33337 17.3174 1.65264 16.5468 2.22092 15.9784C2.78922 15.4101 3.55999 15.0908 4.36367 15.0908H4.50004C5.00154 15.0791 5.48792 14.9168 5.89594 14.6249C6.30397 14.3331 6.61476 13.9253 6.78792 13.4545C6.98961 12.9975 7.04977 12.4905 6.96066 11.999C6.87154 11.5075 6.63722 11.054 6.28792 10.6969L6.19701 10.606C5.91526 10.3246 5.69176 9.99033 5.53926 9.62247C5.38676 9.25458 5.30826 8.86027 5.30826 8.46203C5.30826 8.06382 5.38676 7.66948 5.53926 7.30162C5.69176 6.93373 5.91526 6.59954 6.19701 6.3181C6.47844 6.03635 6.81266 5.81284 7.18052 5.66035C7.54839 5.50785 7.94272 5.42935 8.34096 5.42935C8.73917 5.42935 9.13351 5.50785 9.50137 5.66035C9.86924 5.81284 10.2035 6.03635 10.4849 6.3181L10.5758 6.409C10.9329 6.7583 11.3864 6.99262 11.8779 7.08175C12.3694 7.17087 12.8764 7.1107 13.3334 6.909H13.4546C13.9027 6.71695 14.2849 6.39804 14.5541 5.99154C14.8234 5.58504 14.9679 5.10869 14.9697 4.62114V4.36355C14.9697 3.55987 15.289 2.7891 15.8574 2.2208C16.4255 1.65252 17.1964 1.33325 18 1.33325C18.8037 1.33325 19.5745 1.65252 20.1427 2.2208C20.711 2.7891 21.0304 3.55987 21.0304 4.36355V4.49992C21.0322 4.98747 21.1767 5.46382 21.446 5.87032C21.7152 6.27682 22.0974 6.59573 22.5455 6.7878C23.0025 6.98948 23.5094 7.04965 24.0009 6.96054C24.4924 6.87142 24.946 6.6371 25.303 6.2878L25.394 6.19689C25.6754 5.91514 26.0095 5.69164 26.3775 5.53914C26.7454 5.38664 27.1397 5.30814 27.5379 5.30814C27.9362 5.30814 28.3305 5.38664 28.6984 5.53914C29.0662 5.69164 29.4004 5.91514 29.6819 6.19689C29.9635 6.47832 30.187 6.81253 30.3395 7.1804C30.492 7.54827 30.5705 7.9426 30.5705 8.34083C30.5705 8.73905 30.492 9.13339 30.3395 9.50125C30.187 9.86912 29.9635 10.2033 29.6819 10.4848L29.5909 10.5757C29.2417 10.9328 29.0074 11.3863 28.9182 11.8778C28.829 12.3693 28.8892 12.8763 29.0909 13.3333V13.4545C29.283 13.9026 29.6019 14.2848 30.0084 14.554C30.4149 14.8233 30.8912 14.9678 31.3789 14.9696H31.6364C32.44 14.9696 33.2109 15.2889 33.7792 15.8573C34.3474 16.4254 34.6667 17.1963 34.6667 17.9999C34.6667 18.8036 34.3474 19.5744 33.7792 20.1426C33.2109 20.7109 32.44 21.0303 31.6364 21.0303H31.5C31.0125 21.0321 30.5362 21.1766 30.1297 21.4459C29.7232 21.7151 29.4042 22.0973 29.2122 22.5454Z" stroke="black" stroke-width="2" stroke-linecap="round" stroke-linejoin="round"/>
</svg>
