<svg width="23" height="19" viewBox="0 0 23 19" fill="none" xmlns="http://www.w3.org/2000/svg">
<path d="M3.47442 10.8105L5.03291 16.3056C5.07673 16.4601 5.09865 16.5374 5.12458 16.6048C5.37785 17.2639 6.05122 17.7274 6.83806 17.7842C6.9186 17.7899 7.00897 17.7899 7.18968 17.7899C7.41599 17.7899 7.52914 17.7899 7.62447 17.7818C8.56662 17.7012 9.31223 17.044 9.4036 16.2136C9.41284 16.1295 9.41284 16.0297 9.41284 15.8303V3.39495M17.8256 10.3743C19.7388 10.3743 21.2897 9.00724 21.2897 7.32086C21.2897 5.63446 19.7388 4.26737 17.8256 4.26737M9.66028 3.39495H5.94876C3.48899 3.39495 1.49494 5.15264 1.49494 7.32086C1.49494 9.48908 3.48899 11.2468 5.94876 11.2468H9.66028C11.4085 11.2468 13.5472 12.0729 15.1972 12.8657C16.1597 13.3282 16.641 13.5595 16.9562 13.5254C17.2485 13.4939 17.4695 13.3782 17.6408 13.167C17.8256 12.9394 17.8256 12.4839 17.8256 11.5728V3.06891C17.8256 2.15785 17.8256 1.70231 17.6408 1.47465C17.4695 1.26353 17.2485 1.14785 16.9562 1.11629C16.641 1.08226 16.1597 1.31352 15.1972 1.77604C13.5472 2.56886 11.4085 3.39495 9.66028 3.39495Z" stroke="black" stroke-width="2" stroke-linecap="round" stroke-linejoin="round"/>
</svg>
