<svg width="20" height="18" viewBox="0 0 20 18" fill="none" xmlns="http://www.w3.org/2000/svg">
<path d="M11.1042 4.97917L10.1513 3.07345C9.87706 2.52497 9.73997 2.25073 9.5354 2.05037C9.35449 1.87319 9.13642 1.73843 8.89708 1.65587C8.62639 1.5625 8.31976 1.5625 7.70653 1.5625H4.44166C3.48491 1.5625 3.00652 1.5625 2.6411 1.7487C2.31965 1.91248 2.05831 2.17382 1.89453 2.49527C1.70833 2.8607 1.70833 3.33908 1.70833 4.29583V4.97917M1.70833 4.97917H14.6917C16.1268 4.97917 16.8443 4.97917 17.3925 5.25846C17.8747 5.50414 18.2667 5.89615 18.5123 6.37832C18.7917 6.92646 18.7917 7.644 18.7917 9.07917V12.8375C18.7917 14.2727 18.7917 14.9902 18.5123 15.5384C18.2667 16.0206 17.8747 16.4125 17.3925 16.6582C16.8443 16.9375 16.1268 16.9375 14.6917 16.9375H5.80833C4.37319 16.9375 3.65562 16.9375 3.10748 16.6582C2.62531 16.4125 2.2333 16.0206 1.98762 15.5384C1.70833 14.9902 1.70833 14.2727 1.70833 12.8375V4.97917ZM10.25 13.5208V8.39583M7.68749 10.9583H12.8125" stroke="white" stroke-width="2" stroke-linecap="round" stroke-linejoin="round"/>
</svg>
