<svg width="36" height="36" viewBox="0 0 36 36" fill="none" xmlns="http://www.w3.org/2000/svg">
<path d="M29.2122 22.5457C29.0105 23.0027 28.9503 23.5095 29.0393 24.001C29.1285 24.4925 29.3628 24.9462 29.7122 25.3032L29.803 25.3942C30.0848 25.6755 30.3083 26.0097 30.4608 26.3777C30.6133 26.7455 30.6918 27.1398 30.6918 27.538C30.6918 27.9363 30.6133 28.3307 30.4608 28.6985C30.3083 29.0663 30.0848 29.4005 29.803 29.682C29.5217 29.9637 29.1873 30.1872 28.8195 30.3397C28.4517 30.4922 28.0573 30.5707 27.6592 30.5707C27.2608 30.5707 26.8665 30.4922 26.4987 30.3397C26.1308 30.1872 25.7967 29.9637 25.5152 29.682L25.4242 29.591C25.0672 29.2418 24.6137 29.0075 24.1222 28.9183C23.6307 28.8292 23.1237 28.8893 22.6667 29.091C22.2185 29.2832 21.8363 29.602 21.5672 30.0085C21.298 30.415 21.1535 30.8913 21.1515 31.379V31.6365C21.1515 32.4402 20.8323 33.211 20.264 33.7793C19.6957 34.3475 18.9248 34.6668 18.1212 34.6668C17.3175 34.6668 16.5468 34.3475 15.9785 33.7793C15.4102 33.211 15.0908 32.4402 15.0908 31.6365V31.5002C15.0792 30.9987 14.9168 30.5123 14.625 30.1043C14.3332 29.6962 13.9254 29.3855 13.4546 29.2123C12.9976 29.0107 12.4906 28.9505 11.9991 29.0395C11.5076 29.1287 11.0541 29.363 10.697 29.7123L10.6061 29.8032C10.3246 30.085 9.99043 30.3085 9.62256 30.461C9.25468 30.6135 8.86036 30.692 8.46213 30.692C8.06391 30.692 7.66958 30.6135 7.30171 30.461C6.93383 30.3085 6.59963 30.085 6.31819 29.8032C6.03644 29.5218 5.81293 29.1875 5.66044 28.8197C5.50794 28.4518 5.42944 28.0575 5.42944 27.6593C5.42944 27.261 5.50794 26.8667 5.66044 26.4988C5.81293 26.131 6.03644 25.7968 6.31819 25.5153L6.40909 25.4243C6.75839 25.0673 6.99271 24.6138 7.08184 24.1223C7.17096 23.6308 7.11079 23.1238 6.90909 22.6668C6.71704 22.2187 6.39813 21.8365 5.99163 21.5673C5.58513 21.2982 5.10878 21.1537 4.62123 21.1517H4.36364C3.55996 21.1517 2.78919 20.8325 2.22089 20.2642C1.65261 19.6958 1.33334 18.925 1.33334 18.1213C1.33334 17.3177 1.65261 16.547 2.22089 15.9787C2.78919 15.4103 3.55996 15.091 4.36364 15.091H4.50001C5.00151 15.0793 5.48789 14.917 5.89591 14.6252C6.30394 14.3333 6.61473 13.9255 6.78789 13.4547C6.98958 12.9977 7.04974 12.4908 6.96063 11.9993C6.87151 11.5078 6.63719 11.0542 6.28789 10.6971L6.19698 10.6062C5.91523 10.3248 5.69173 9.99058 5.53923 9.62271C5.38673 9.25483 5.30823 8.86051 5.30823 8.46228C5.30823 8.06406 5.38673 7.66973 5.53923 7.30186C5.69173 6.93398 5.91523 6.59978 6.19698 6.31835C6.47841 6.0366 6.81263 5.81308 7.18049 5.6606C7.54836 5.5081 7.94269 5.4296 8.34093 5.4296C8.73914 5.4296 9.13348 5.5081 9.50134 5.6606C9.86921 5.81308 10.2034 6.0366 10.4849 6.31835L10.5758 6.40925C10.9329 6.75855 11.3864 6.99286 11.8779 7.082C12.3694 7.17111 12.8763 7.11095 13.3333 6.90925H13.4546C13.9027 6.7172 14.2849 6.39828 14.5541 5.99178C14.8233 5.58528 14.9678 5.10893 14.9697 4.62138V4.3638C14.9697 3.56011 15.289 2.78935 15.8573 2.22105C16.4255 1.65276 17.1963 1.3335 18 1.3335C18.8037 1.3335 19.5745 1.65276 20.1427 2.22105C20.711 2.78935 21.0303 3.56011 21.0303 4.3638V4.50016C21.0322 4.98771 21.1767 5.46406 21.446 5.87056C21.7152 6.27706 22.0973 6.59598 22.5455 6.78805C23.0025 6.98973 23.5093 7.0499 24.0008 6.96078C24.4923 6.87166 24.946 6.63735 25.303 6.28805L25.394 6.19713C25.6753 5.91538 26.0095 5.69188 26.3775 5.53938C26.7453 5.38688 27.1397 5.30838 27.5378 5.30838C27.9362 5.30838 28.3305 5.38688 28.6983 5.53938C29.0662 5.69188 29.4003 5.91538 29.6818 6.19713C29.9635 6.47856 30.187 6.81278 30.3395 7.18065C30.492 7.54851 30.5705 7.94285 30.5705 8.34108C30.5705 8.7393 30.492 9.13363 30.3395 9.5015C30.187 9.86936 29.9635 10.2036 29.6818 10.485L29.5908 10.5759C29.2417 10.933 29.0073 11.3865 28.9182 11.8781C28.829 12.3696 28.8892 12.8765 29.0908 13.3335V13.4547C29.283 13.9028 29.6018 14.285 30.0083 14.5542C30.4148 14.8235 30.8912 14.968 31.3788 14.9698H31.6363C32.44 14.9698 33.2108 15.2892 33.7792 15.8575C34.3473 16.4257 34.6667 17.1965 34.6667 18.0002C34.6667 18.8038 34.3473 19.5747 33.7792 20.1428C33.2108 20.7112 32.44 21.0305 31.6363 21.0305H31.5C31.0125 21.0323 30.5362 21.1768 30.1297 21.4462C29.7232 21.7153 29.4042 22.0975 29.2122 22.5457Z" stroke="black" stroke-width="2" stroke-linecap="round" stroke-linejoin="round"/>
</svg>
