<svg width="28" height="26" viewBox="0 0 28 26" fill="none" xmlns="http://www.w3.org/2000/svg">
<path d="M15.25 6.75L13.8556 3.96115C13.4542 3.1585 13.2536 2.75716 12.9542 2.46395C12.6895 2.20466 12.3704 2.00746 12.0201 1.88664C11.624 1.75 11.1753 1.75 10.2779 1.75H5.5C4.09987 1.75 3.3998 1.75 2.86502 2.02249C2.39461 2.26216 2.01216 2.64461 1.77249 3.11502C1.5 3.6498 1.5 4.34987 1.5 5.75V6.75M1.5 6.75H20.5C22.6002 6.75 23.6502 6.75 24.4525 7.15872C25.1581 7.51825 25.7317 8.09192 26.0912 8.79754C26.5 9.5997 26.5 10.6497 26.5 12.75V18.25C26.5 20.3502 26.5 21.4002 26.0912 22.2025C25.7317 22.9081 25.1581 23.4817 24.4525 23.8412C23.6502 24.25 22.6002 24.25 20.5 24.25H7.5C5.3998 24.25 4.3497 24.25 3.54754 23.8412C2.84192 23.4817 2.26825 22.9081 1.90873 22.2025C1.5 21.4002 1.5 20.3502 1.5 18.25V6.75ZM14 19.25V11.75M10.25 15.5H17.75" stroke="white" stroke-width="2" stroke-linecap="round" stroke-linejoin="round"/>
</svg>
